<?xml version="1.0" encoding="UTF-8"?>
<svg id="uuid-df858e83-18a8-4946-984b-51fa05a84648" data-name="Layer 1" xmlns="http://www.w3.org/2000/svg" viewBox="0 0 2844.26 3126.2">
  <defs>
    <style>
      .uuid-0ffcf094-458a-4766-82a8-3e7d3f6a8084 {
        fill: #4ade80;
        stroke-width: 0px;
      }
    </style>
  </defs>
  <path class="uuid-0ffcf094-458a-4766-82a8-3e7d3f6a8084" d="m2496.04,846.81c-.43,12.79-.45,24.33-1.31,35.81-.72,9.55-1.35,19.13-2.85,28.63-.9,5.68-1.46,11.41-2.25,17.11-2.32,16.8-5.6,33.41-8.88,50.03-.62,3.13-1.03,6.3-1.45,9.46-.19,1.46,1.33,3.16,2.87,3.29,8.29.69,16.57,1.33,24.86,2.01,4.46.37,8.92.77,13.37,1.18,7.96.73,15.9,1.58,23.83,2.6,39.25,5.03,77.27,14.46,113.11,31.62,28.51,13.65,54.36,31.17,76.54,53.82,25.3,25.83,43.57,55.88,53.86,90.64,3.27,11.05,5.46,22.31,7.1,33.73,2.24,15.63,1.91,31.28,1.31,46.93-.28,7.33-1.35,14.65-2.44,21.91-4.38,29.22-12.82,57.36-23.13,84.98-3.58,9.58-7.46,19.05-11.2,28.58-.93,2.38-1.9,4.75-2.72,7.17-.43,1.26-.22,2.63.72,3.59,2.02,2.04,4.13,4,6.28,5.91,12.24,10.84,23.69,22.43,33.87,35.26,19.58,24.69,33.23,52.29,40.46,82.96,2.35,9.95,4.01,20.03,4.85,30.27.73,8.93,1.54,17.84,1.39,26.81-.1,6.08-.13,12.16-.98,18.2-.18,1.27-.27,2.55-.34,3.82-1.32,24.06-5.85,47.59-12.38,70.71-13.97,49.51-36.52,94.76-68.29,135.32-16.05,20.48-34.18,38.92-54.49,55.21-26.23,21.05-55.46,36.56-87.22,47.42-4.54,1.55-9.14,2.89-13.68,4.44-1.79.61-3.49,1.51-5.22,2.3-.69.31-.73,2.12-.03,2.56,2.43,1.51,4.86,3.01,7.32,4.45,9.35,5.46,16.55,13.01,21.76,22.47,2.63,4.78,4.81,9.76,6.32,15,3.28,11.4,5.58,22.99,5.97,34.89.13,3.84.22,7.68.31,11.51.38,17.42-2.29,34.43-7.31,51.06-2.31,7.65-4.75,15.27-7.56,22.75-9.21,24.55-18.67,49-29.33,72.97-7.41,16.67-15.54,32.98-24.9,48.65-11.04,18.47-23.75,35.66-38.68,51.19-16.98,17.67-36.38,32.15-57.49,44.49-40.66,23.75-84.03,40.46-130.03,50.35-9.36,2.01-18.85,3.46-28.34,4.86-9.83,1.45-19.73,2.15-29.59,2.84-13.39.93-26.85,1.09-40.25-.54-2.22-.27-4.46-.4-6.69-.61-46.3-4.33-88.53-19.25-125.16-48.49-20.47-16.34-37.14-36.03-50.7-58.41-11.82-19.52-20.86-40.29-28.22-61.84-6-17.57-10.71-35.49-15.07-53.52-.23-.93-.29-1.9-.54-2.83-2.09-7.7-2.78-8.01-9.73-4.96-13.18,5.78-26.53,11.12-40.19,15.68-16.11,5.37-32.55,9.4-49.29,12.14-17.44,2.85-35.04,3.13-52.63,2.09-6.36-.37-12.66-1.7-18.99-2.63-2.21-.32-4.42-.71-6.61-1.16-4.65-.94-8.91.09-12.86,2.52-1.9,1.17-3.74,2.47-5.47,3.88-21.05,17.21-42.22,34.28-63.08,51.73-25.29,21.16-49.42,43.6-72.28,67.38-18.65,19.4-36.14,39.77-52.27,61.32-23.87,31.88-43.7,66.15-60.53,102.2-15.71,33.66-28.76,68.35-40.54,103.55-11.06,33.05-20.9,66.47-30.67,99.92-9.95,34.06-19.7,68.17-30.55,101.96-9.78,30.45-20.38,60.6-32.73,90.13-13.35,31.92-28.47,62.94-46.64,92.41-19.56,31.72-42.23,61.01-68.77,87.22-31.94,31.53-67.98,57.18-108.97,75.7-23.98,10.83-48.86,18.92-74.61,24.31-12.52,2.62-25.11,4.7-37.85,6.04-20.72,2.19-41.45,3.08-62.27,1.99-3.51-.18-7.03-.32-10.55-.43-4.8-.16-9.57-.47-14.33-1.23-6-.95-12.06-1.37-18.08-2.21-19.36-2.7-38.39-6.85-57.13-12.27-54.74-15.84-104.57-41.29-148.95-77.12-45.24-36.53-80.97-80.69-105.99-133.34-12.54-26.39-21.69-53.94-28.18-82.41-3.06-13.41-5.47-26.96-7.19-40.59-1.16-9.18-2.64-18.37-2.65-27.68,0-1.6-.12-3.2-.29-4.79-2.09-19.47-1.28-38.99-1.11-58.5,1.4-12.72,1.22-25.56,2.97-38.26,1.09-7.91,1.57-15.91,2.6-23.83,1.27-9.83,2.62-19.65,4.31-29.41,2.62-15.12,5.44-30.19,8.58-45.22,4.96-23.79,10.67-47.39,16.75-70.91,9.52-36.83,20.12-73.37,30.52-109.96,10.92-38.44,21.53-76.95,30.9-115.8,6.89-28.59,13.2-57.3,18.62-86.21,3.18-16.97,6.03-33.99,8.68-51.04,1.86-12,3.12-24.09,4.57-36.15,1.07-8.89,2.02-17.79,3.02-26.68.11-.95.23-1.91.3-2.86.66-8.61,1.53-17.21,1.92-25.83,1.51-33.24,2.81-66.49,1.77-99.78-.53-16.95-.93-33.9-1.83-50.83-.63-11.82-.99-23.67-2.04-35.44-1.14-12.75-1.03-25.58-2.88-38.27-.41-2.84-.28-5.75-.47-8.62-.26-3.83-.59-7.65-.91-11.48-.29-3.5-.61-7.01-.92-10.51-.42-4.78-.86-9.55-1.26-14.33-.29-3.51-.45-7.02-.78-10.52-.4-4.14-.98-8.25-1.36-12.39-.3-3.25-1.64-5.39-5.14-5.81-1.9-.23-3.76-.79-5.66-1.04-31.21-4.06-61.44-11.97-90.88-23.03-25.83-9.7-50.46-21.82-73.89-36.38-2.72-1.69-5.53-3.22-8.25-4.9-2.99-1.85-6.1-3.58-8.86-5.73-13.87-10.82-28.01-21.29-40.97-33.24-20.56-18.95-39-39.68-54.5-63-3.36-5.06-6.69-10.15-10.18-15.13-2.57-3.67-5.25-7.26-8.08-10.73-7.01-8.57-15.63-15.09-25.82-19.44-6.17-2.64-12.43-5.07-18.69-7.5-11.32-4.4-22.7-8.66-34.01-13.1-24.01-9.43-45.9-22.49-66.03-38.57-24.52-19.59-44.84-42.8-60.17-70.27-12.26-21.97-20.47-45.37-25.28-70.06-2.45-12.59-3.58-25.32-5.08-38.01-.34-2.85-.33-5.75-.35-8.63-.05-9.6-.09-19.2-.04-28.8.03-6.08.32-12.14,1.22-18.18.94-6.32,1.24-12.71,2.14-19.06,3.91-27.68,10.97-54.49,21.19-80.49,10.83-27.56,25.01-53.23,43.11-76.69,23.81-30.85,52.68-55.68,87.52-73.37,17.17-8.71,35.12-15.38,53.59-20.71,12.91-3.72,26.03-6.54,39.16-9.33,1.25-.27,2.5-.51,3.73-.84,1.8-.49,3.22-2.57,2.95-4.41-.65-4.43-1.31-8.85-2.05-13.27-1.91-11.35-3.83-22.69-5.18-34.12-.9-7.62-2.02-15.21-2.98-22.82-.28-2.22-.41-4.46-.57-6.69-.18-2.55-.14-5.14-.5-7.66-1.47-10.17-1.49-20.41-1.55-30.65-.05-8.64.01-17.28.1-25.92.06-6.4.5-12.77,1.21-19.14.86-7.62,1.53-15.26,2.5-22.88,7.25-57.06,27.54-108.85,62.33-154.79,28.19-37.22,62.82-67.2,102.94-90.9,34.96-20.65,72.29-35.34,111.85-44.48,12.79-2.95,25.69-5.21,38.67-7,13.63-1.88,27.36-2.84,41.14-2.72,11.2.1,22.4.13,33.58.61,7.34.32,14.68,1.09,21.95,2.18,14.85,2.24,29.61,4.95,44.19,8.71,22.04,5.68,43.41,13.21,64.27,22.25,15.56,6.75,30.68,14.4,45.49,22.66,2.51,1.4,5.05,2.76,7.61,4.06,2.39,1.21,4.15.59,5.48-1.98,1.47-2.84,2.79-5.75,4.24-8.61,6.35-12.56,12.56-25.19,19.14-37.63,8.37-15.85,17.74-31.11,27.73-46,31.48-46.95,71.51-85.07,119.19-115.23,44.74-28.3,93.04-48.07,144.54-60.19,15.89-3.74,31.92-6.68,48.08-8.78,9.17-1.19,18.37-2.63,27.68-2.61,2.24,0,4.48-.14,6.71-.39,10.52-1.18,21.08-1.24,31.63-1.05,5.75.1,11.5.49,17.25.8,3.19.17,6.38.44,9.58.64,37.24,2.37,73.49,9.56,108.56,22.37,46.23,16.88,85.95,43.57,119.42,79.63,13.3,14.33,25.38,29.63,36.55,45.67,12.08,17.34,23.15,35.32,33.38,53.79,8.68,15.67,16.96,31.55,25.41,47.34,1.06,1.97,2.08,3.96,3.17,5.92,1.89,3.36,3.19,4.01,7.06,3.01,5.88-1.52,11.72-3.18,17.55-4.86,24.87-7.2,49.89-13.84,75.23-19.23,12.82-2.73,25.69-5.11,38.62-7.26,12.63-2.1,25.36-3.26,38.03-4.98,2.53-.34,5.11-.3,7.66-.44,3.51-.19,7.04-.29,10.54-.6,17.57-1.56,35.14-1.56,52.71-.02,1.27.11,2.55.21,3.83.28,37.24,1.91,73.58,8.89,109.19,19.75,47.47,14.48,91.64,35.82,132.17,64.56,41.13,29.17,76.11,64.39,104.25,106.31,23.98,35.72,40.63,74.62,50.05,116.56,3.08,13.72,5.56,27.58,6.64,41.64.34,4.46,1.2,8.89,1.4,13.35.52,11.5.81,23.02,1.15,33.26Zm-1046.21,995.12c-1.1-2.63-3.18-3.97-5.93-4.2-2.55-.22-5.11-.29-7.67-.33-21.15-.27-42.14-2.31-63.04-5.57-31.42-4.9-61.95-13.07-91.49-24.87-1.78-.71-3.55-1.45-5.35-2.12-.9-.33-1.84-.55-2.76-.81-1.44-.41-3.24.89-3.45,2.53-.16,1.26-.33,2.53-.38,3.8-.26,6.71-.5,13.43-.7,20.14-.48,15.73-2.78,31.22-6.25,46.54-9.16,40.46-27.35,76.31-54.97,107.32-15.63,17.55-33.48,32.51-53.04,45.49-10.42,6.91-21.29,13-32.41,18.69-2.56,1.31-5.12,2.64-7.64,4.03-2.1,1.16-3.35,2.96-3.37,5.41-.03,3.2.01,6.4.09,9.59.46,19.22-.1,38.39-2.76,57.46-3.58,25.7-9.11,51.01-15.03,76.24-.43,1.85-1.21,3.62-1.88,5.42-.35.94-2.11,2.02-3.1,1.92-1.59-.16-3.2-.26-4.75-.61-9.05-2.06-18.08-4.18-27.11-6.28-.31-.07-.62-.15-.93-.25-4.8-1.58-6.47-2.66-5.52-8.3.53-3.15,1.27-6.27,2-9.38,3.79-16.2,7.31-32.46,10.08-48.87,3.25-19.27,5.35-38.63,5.17-58.23-.16-18.04-2.67-35.69-7.31-53.09-3.97-14.87-9.12-29.33-15.09-43.49-5.09-12.09-10.48-24.05-15.74-36.06-6.16-14.07-12.43-28.09-18.45-42.21-5.27-12.37-9.82-25.01-13.76-37.88-7.82-25.55-12.24-51.64-12.34-78.41-.04-8.97.42-17.89,1.45-26.82,2.94-25.64,9.29-50.29,20.64-73.55.55-1.12.86-2.39,1.04-3.63.07-.47-.47-1.08-.85-1.53-.16-.19-.67-.3-.9-.19-2.01.95-4.06,1.84-5.98,2.95-16.11,9.33-32.97,17.04-50.61,22.96-39.05,13.1-79.09,20.93-120.34,22.11-2.86.08-5.76-.15-8.56.8-.93.32-2.38,1.78-2.5,2.7-.08.63-.27,1.27-.22,1.9.56,7.66,1.11,15.31,1.75,22.96.93,11.16,2.05,22.3,2.88,33.46.99,13.4,1.75,26.81,2.61,40.22.06.96.17,1.91.23,2.87.46,7.34.93,14.68,1.35,22.03.22,3.83.19,7.69.56,11.5.92,9.57,1.08,19.17,1.31,28.76.29,12.16.66,24.31.81,36.47.16,12.16.22,24.32.11,36.47-.1,10.56-.66,21.11-.73,31.67-.1,15.7-1.46,31.33-2.67,46.94-1.18,15.29-2.88,30.56-4.77,45.8-2.44,19.69-5.28,39.31-8.64,58.85-6.51,37.83-14.54,75.35-23.62,112.65-9.91,40.72-21.16,81.07-32.53,121.4-11.37,40.32-23.34,80.48-32.84,121.31-5.36,23.06-10.95,46.07-15.38,69.33-4.48,23.58-8.18,47.28-10.66,71.16-1.33,12.74-2.4,25.5-2.88,38.27-.76,20.46-.62,40.92,1.06,61.38,1.61,19.49,4.26,38.8,8.4,57.89,6.61,30.49,16.82,59.71,31.31,87.38,20.91,39.95,49.11,73.99,83.66,102.83,37.04,30.92,78.66,53.61,124.42,68.78,8.84,2.93,17.71,5.51,27.17,5.23,2.91-.09,5.74.56,8.36,1.87,4.65,2.33,9.7,3.2,14.71,4.24,15.7,3.26,31.64,4.86,47.59,5.79,22.06,1.29,44.14.73,66.1-2.04,16.2-2.05,32.21-5.13,47.97-9.48,21.04-5.81,41.39-13.45,60.74-23.53,30.01-15.64,56.97-35.49,80.94-59.39,7.71-7.69,15.15-15.59,22.24-23.87,10.42-12.17,20.16-24.83,29.23-38.03,17.27-25.14,31.56-51.94,44.31-79.57,11.27-24.42,20.98-49.48,29.89-74.85,10.61-30.19,19.96-60.79,29.07-91.46,9.57-32.2,18.9-64.47,28.48-96.66,9.59-32.2,20.04-64.12,31.9-95.57,14.47-38.38,31.21-75.71,51.5-111.4,11.56-20.33,24.14-39.99,38.05-58.79,9.71-13.12,19.91-25.85,30.61-38.18,9.65-11.12,19.29-22.23,29.63-32.72,13.02-13.22,26.2-26.27,40.02-38.68,13.57-12.19,27.2-24.29,41.25-35.92,11.09-9.18,22.27-18.25,33.37-27.42,1.71-1.42,3.33-3,4.76-4.7.5-.6.55-1.82.39-2.67-.2-1.08-.08-1.64.91-2.27,3.74-2.37,3.78-3.66.35-6.16-1.29-.94-2.63-1.82-3.95-2.72-24.65-16.73-45.15-37.63-62.23-61.96-9.21-13.12-17.2-26.96-24.11-41.44-1.38-2.88-2.82-5.74-4.37-8.53-.81-1.45-2.23-2.27-3.9-2.49-4.18-.54-8.3,0-12.41.7-9.15,1.56-18.2,3.61-27.13,6.13-13.24,3.73-26.47,7.51-39.7,11.26-9.55,2.71-19.2,4.92-28.95,6.79-9.42,1.81-18.82,3.77-28.18,5.88-4.98,1.13-9.88,2.68-14.78,4.14-2.18.65-4.05,1.89-5.55,3.64-.83.97-1.67,1.94-2.48,2.93-11.46,14.21-23.81,27.62-36.46,40.78-8.65,9-17.35,17.94-25.82,27.1-6.73,7.28-13.36,14.67-19.67,22.31-9.07,10.98-15.43,23.48-19.58,37.12-2.9,9.52-4.74,19.25-5.78,29.14-.6,5.73-1.09,11.47-1.65,17.2-.09.95-.26,1.9-.41,2.85-.21,1.3-1.83,2.89-3.3,3.08-1.58.2-3.18.4-4.76.35-8.32-.23-16.63-.52-24.94-.81-1.6-.06-3.2-.14-4.79-.29-3.73-.35-5.57-2.41-5.59-6.41-.01-2.88,0-5.77.32-8.63,1.63-14.62,3.42-29.23,5.01-43.85.56-5.15,1.42-10.04,4.62-14.39,1.48-2.01,2.15-4.62,3.15-6.98,5.62-13.36,13.01-25.66,22.07-36.96,8.01-9.99,16.57-19.52,25.35-28.82,12.95-13.72,26.42-26.95,39.04-41.01,10.27-11.45,20.18-23.16,29.04-35.72,5.54-7.85,10.53-16.07,14.51-24.83,6.51-14.31,11.63-29.13,14.98-44.49,4.09-18.8,6.76-37.79,6.41-57.1-.03-1.6.05-3.2.02-4.8-.13-8-.24-16-.42-23.99-.13-5.78-1.16-11.45-2.23-17.11-.57-3-3.31-4.96-6.34-4.68-1.59.15-3.16.44-4.74.71-18.6,3.24-37.22,6.25-56.16,6.7-6.08.14-12.12,1.02-17.76,3.62l.05.06Zm254.17,2.81c.68,15.02,1.54,30.04,1.98,45.06.8,27.07,5.53,53.42,13.8,79.16,8.79,27.33,21.44,52.72,38.87,75.61,16.7,21.93,36.86,39.88,61.22,52.98,21.6,11.62,44.64,17.29,69.16,16.8,3.5-.07,7.02-.44,10.49-.98,10.12-1.59,20.07-4.01,29.99-6.55,37.65-9.64,73.93-22.87,108.26-41.22,8.46-4.53,16.9-9.1,25.34-13.67,1.69-.91,3.34-1.89,5.04-2.78.85-.44,1.75-.78,2.64-1.13,1.32-.54,3.3.03,4.32,1.27.81.98,1.68,1.95,2.34,3.03,5.13,8.49,10.23,16.99,15.3,25.52.65,1.09,1.11,2.3,1.59,3.49.71,1.73.19,4.18-1.26,5.26-2.31,1.71-4.64,3.41-7.09,4.9-4.92,2.99-9.96,5.78-14.9,8.74-6.24,3.74-7.49,6.25-5.85,13.51,2.74,12.17,5.45,24.37,8.82,36.37,4.93,17.56,10.73,34.85,18.21,51.54,7.89,17.61,17.62,34.05,29.95,48.96,16.2,19.6,35.99,34.53,59,45.04,25.35,11.58,52.08,17.48,79.99,17.75,7.36.07,14.72.1,22.08.01,9.6-.11,19.14-.68,28.69-1.95,28.36-3.79,55.86-10.82,82.65-20.8,19.84-7.39,38.8-16.66,57.3-26.87,9.24-5.1,18.16-10.75,26.59-17.16,12.8-9.73,23.96-21.16,34.73-33.01,1.5-1.65,2.83-3.47,4.22-5.22,14.19-17.91,25.33-37.68,35.12-58.23,4.27-8.95,8.17-18.08,11.94-27.25,5.96-14.5,11.77-29.06,17.42-43.68,3.46-8.95,6.64-18.01,9.66-27.12,1.71-5.15,3.04-10.45,4.18-15.75,3.63-16.78,4.25-33.6.06-50.42-.46-1.86-.74-3.77-1.17-5.64-.42-1.87-.87-3.74-1.4-5.58-1.82-6.33-5.98-10.45-12.14-12.58-4.55-1.57-9.22-2.61-14-3.23-8.88-1.16-17.75-2.38-26.61-3.68-2.2-.32-4.39-.9-6.48-1.64-3.61-1.28-7.15-2.78-10.72-4.18-3.59-1.41-7.08-3.02-10.2-5.29-8.69-6.31-13.04-14.75-12.17-25.59.53-6.65,3.34-12.34,8.03-16.99,2.71-2.69,5.89-4.91,8.74-7.47,3.2-2.88,6.91-4.52,11.09-5.33,6.6-1.27,13.18-2.63,19.76-3.98,21.97-4.49,43.53-10.39,64.66-17.98,35.66-12.82,65.89-33.82,92.21-60.67,9.62-9.81,18.5-20.35,26.75-31.39,12.1-16.2,22.48-33.42,31.42-51.56,13.66-27.7,23.88-56.55,29.71-86.92,3.26-17,5.67-34.08,5.38-51.45-.06-3.52.02-7.04,0-10.56-.07-9.61-.55-19.16-2.16-28.67-3.07-18.15-8.8-35.34-17.44-51.59-8.8-16.56-20.68-30.8-33.76-44.02-6.28-6.35-13.23-12.09-20.16-17.75-17.89-14.62-37.42-26.83-57.51-38.16-5.3-2.98-10.63-5.9-15.91-8.92-1.37-.79-2.66-1.77-3.85-2.81-1.01-.88-1.45-2.21-1.12-3.49.47-1.84,1-3.72,1.87-5.4,4.72-9.09,9.54-18.12,14.35-27.15.45-.84,1.05-1.6,1.61-2.38,1.1-1.53,3.45-2.43,5.11-1.72,2.93,1.26,5.89,2.5,8.66,4.07,10.58,5.99,21.09,12.1,31.62,18.16.83.48,1.65.97,2.5,1.44,4.37,2.4,6.89,1.5,9.08-3.31.93-2.04,1.73-4.13,2.58-6.2,5.1-12.44,9.34-25.19,13.5-37.97,3.47-10.66,6.22-21.52,8.56-32.47,2.21-10.32,4.12-20.71,4.53-31.31.1-2.55.49-5.09.79-7.64.81-7.02.79-14.04,0-21.07-.4-3.5-.75-7-1.04-10.51-.78-9.6-2.68-18.99-5.32-28.24-3.45-12.06-8.51-23.43-14.36-34.49-6.33-11.95-14.25-22.78-23.29-32.78-15.38-16.99-33.18-30.99-53.09-42.28-22.98-13.03-47.45-22.31-73.12-28.42-22.14-5.27-44.6-8.49-67.29-10.18-1.91-.14-3.82-.4-5.73-.56-4.78-.4-9.56-.81-14.34-1.14-5.42-.37-10.85-.67-16.28-.97-1.27-.07-2.56-.16-3.82-.02-2.01.21-3.72,1.17-4.63,3-.85,1.7-1.52,3.52-2.05,5.34-1.33,4.61-2.43,9.29-3.81,13.88-1.62,5.4-3.86,6.67-9.27,5.59-.31-.06-.63-.11-.94-.19-9.26-2.53-18.53-5.02-27.76-7.62-1.83-.52-3.6-1.34-5.28-2.25-1.49-.8-2.21-2.26-2.27-3.97-.14-3.59.98-6.94,1.92-10.33,5.62-20.36,10.59-40.88,15.09-61.51.88-4.05,1.8-8.18,1.96-12.29.19-4.88,1.16-9.49,2.63-14.08,1.27-3.96,2.39-7.97,3.65-11.93,1.36-4.28,2.38-8.62,2.92-13.09,1.42-11.75,3.1-23.47,4.35-35.24,1.72-16.23,2.49-32.54,2.42-48.87-.03-6.71-.62-13.42-.91-20.13-.91-20.85-4.12-41.37-9.1-61.62-9.99-40.68-28.16-77.42-53.39-110.76-27.54-36.39-60.84-66.5-99.41-90.76-65.13-40.97-136.43-62.13-213.09-65.71-20.17-.94-40.32.03-60.38,2.09-21.65,2.22-43.11,5.77-64.41,10.29-34.46,7.31-68.31,16.87-102.04,26.95-4.03,1.2-7.76,2.87-11.26,5.21-6.14,4.11-12.78,7.29-19.67,9.92-4.81,1.83-9.76,3.08-14.88,3.62-4.54.47-8.97-.13-13.19-1.79-11.54-4.51-17.65-16.97-14.35-29.06,1.19-4.38,3.18-8.4,5.96-11.96,2.75-3.52,5.6-7.01,8.7-10.22,2.83-2.93,3.69-5.83,1.51-9.45-.99-1.64-1.73-3.43-2.64-5.12-5.32-9.85-10.57-19.75-16.02-29.53-8.57-15.38-17.63-30.46-27.48-45.06-11.47-17-23.92-33.23-37.96-48.22-30.35-32.41-66.5-55.77-108.59-69.98-35.17-11.87-71.42-17.38-108.39-18.55-25.33-.81-50.51,1.16-75.55,5.01-48.83,7.5-95.14,22.64-138.75,45.87-57.98,30.89-105.19,73.43-140.1,129.35-15.28,24.48-28.55,50-40.69,76.14-.8,1.73-1.47,3.56-1.95,5.4-.33,1.26,0,2.61,1.05,3.51,1.94,1.65,3.91,3.3,5.99,4.76,19.39,13.61,38.24,27.94,56.56,42.94,11.39,9.32,22.6,18.86,33.85,28.35,1.95,1.64,3.73,3.49,5.52,5.31,1.1,1.11,1.12,3.07.18,4.43-.55.79-1.06,1.6-1.69,2.33-6.91,7.98-13.83,15.96-20.77,23.92-.62.72-1.39,1.31-2.11,1.94-.83.74-2.77,1-3.61.38-2.55-1.92-5.11-3.83-7.56-5.86-13.06-10.81-25.88-21.93-39.19-32.43-16.07-12.68-32.29-25.2-48.92-37.14-22.9-16.45-47.09-30.85-72.36-43.39-17.21-8.54-34.9-15.93-53.13-22.07-33-11.12-66.91-17.01-101.69-17.72-17.94-.37-35.82,1-53.56,3.61-25.07,3.69-49.53,9.91-73.26,18.88-46.46,17.56-87.61,43.36-122.26,79.15-28.69,29.62-50.14,63.75-63.66,102.8-5.67,16.38-9.51,33.2-12.23,50.28-2.92,18.34-4.75,36.8-4.65,55.41,0,.96-.03,1.92-.04,2.88-.18,18.9.65,37.75,2.87,56.52,2.15,18.1,4.85,36.14,7.88,54.11.58,3.46,1.38,6.89,2.24,10.29.32,1.28,1.43,2.21,2.75,2.37,1.89.24,3.82.12,5.73.28,1.39.12,2.42,1.06,2.91,2.24.6,1.45.97,3.04,1.19,4.61,1.18,8.56,2.33,17.12,3.4,25.69,1.16,9.22.27,10.36-9.09,11.78-14.55,2.21-29.11,4.34-43.65,6.55-23.5,3.57-46.3,9.73-68.37,18.54-27.11,10.82-50.96,26.58-71.52,47.34-20.48,20.68-36.57,44.42-48.87,70.72-18.85,40.26-28.66,82.65-29.23,127.14-.24,18.59.75,37.06,3.95,55.43,7.63,43.84,27.88,80.62,60.77,110.54,24.31,22.13,52.52,37.41,83.49,47.85,11.53,3.89,22.88,8.22,34.1,12.89,11.01,4.58,21.1,10.71,30.16,18.49,6.82,5.86,12.94,12.41,18.2,19.7,4.87,6.74,9.63,13.57,14.18,20.53,16.76,25.66,37.25,47.97,60.68,67.63,23.91,20.06,50.02,36.7,78.26,49.97,52.07,24.48,106.76,37.18,164.44,36.16,7.03-.12,14.09-.23,21.09-.84,19.15-1.67,38.07-4.85,56.79-9.25,19.67-4.62,38.86-10.68,57.26-19.1,34.87-15.96,63.3-39.56,84.8-71.41,8.61-12.77,16.06-26.17,22.39-40.2,5.93-13.14,11-26.6,15.45-40.31,1.68-5.19,3.26-10.38,3.19-15.91,0-.62.2-1.26.34-1.88.3-1.35,1.17-2.25,2.39-2.79,2.68-1.2,5.57-1.39,8.44-1.59,8.3-.58,16.6-1.12,24.9-1.66.95-.06,1.91.02,2.87.07,1.62.1,3.98,1.95,4.24,3.46.33,1.88.59,3.79.74,5.7,1.59,19.77,3.09,39.55,5.72,59.22,2.58,19.37,6.12,38.54,11.51,57.35,5.67,19.78,13.35,38.7,23.87,56.42,16.41,27.66,38.13,50.43,64.07,69.29,19.78,14.38,41.2,25.8,63.85,34.91,43.22,17.38,88.3,25.83,134.73,27.48,14.71.52,29.41.08,44.1-1.21,19.17-1.69,38.08-4.78,56.77-9.28,29.04-7,56.88-17.36,83.85-30.13,23.75-11.24,46.51-24.27,68.65-38.39,14.84-9.47,29.32-19.46,43.63-29.71,2.59-1.85,5.33-3.5,8.05-5.18.9-.56,1.93-.26,2.69.33,1,.77,1.99,1.64,2.74,2.64,6.3,8.47,12.56,16.97,18.78,25.51.74,1.01,1.37,2.2,1.67,3.41.2.82-.03,1.95-.5,2.67-.68,1.05-1.65,1.95-2.65,2.73-2.26,1.78-4.57,3.51-6.94,5.14-12.65,8.71-25.27,17.46-38.03,26-4.02,2.69-6.56,5.98-6.88,10.86-.04.64-.18,1.27-.29,1.9-1.93,12.02-3.26,24.09-3.65,36.26-.51,16-.46,31.99-.3,48Zm-477.5-36.86c-.57-8.95-1.02-15.65-1.42-22.35-.53-8.74-1.63-9.09-7.7-13.19-9.29-6.27-18.25-12.96-26.8-20.21-27.14-23.03-49.27-50.08-65.61-81.79-6.6-12.82-12.04-26.12-16.74-39.73-.83-2.4-1.83-4.75-2.81-7.1-.39-.95-2.57-1.29-3.4-.54-1.42,1.28-2.91,2.51-4.15,3.95-5.42,6.31-10.91,12.56-16.08,19.06-11.78,14.79-22.23,30.45-30.89,47.31-15.32,29.86-23.25,61.43-22.63,95.07.13,7.05.81,14.02,1.57,21.03,1.07,9.88,3,19.57,5.38,29.2,4.15,16.8,10.04,33.03,16.8,48.92,6.88,16.17,14.13,32.2,21.3,48.24,9.79,21.89,19.18,43.94,26.16,66.93.46,1.51,1.21,2.95,1.87,4.39.5,1.09,2.2,1.81,3.26,1.35,2.05-.89,4.11-1.75,6.08-2.79,17.07-8.96,32.84-19.86,47.22-32.67,41.18-36.68,63.08-82.86,67.41-137.63.18-2.23.26-4.47.52-6.69.88-7.65.81-15.32.65-20.75Zm434.09,37.16c-.08-19.2-.01-38.38.57-57.56.05-1.59-.06-3.19-.14-4.78-.05-1.04-1.91-2.09-2.98-1.64-2.34.99-4.71,1.95-6.98,3.1-21.11,10.72-42.72,20.27-65.09,28.07-1.81.63-3.59,1.36-5.35,2.11-1.71.73-2.84,2.79-2.54,4.73,1.77,11.37,2.95,22.8,3.85,34.27,1.15,14.71,1.41,29.36-.11,44.04-.2,1.91-.34,3.82-.43,5.74-.58,12.48-2.64,24.77-5.01,37-3.1,16.03-7.59,31.68-13.48,46.92-.81,2.09-1.71,4.18-1.44,6.47.05.46.78,1.1,1.28,1.19.9.15,1.95.18,2.79-.14,5.08-1.91,10.16-3.85,15.18-5.93,12.69-5.25,25.28-10.78,38.29-15.23,15.14-5.18,30.46-9.61,46.5-11.02,1.25-.11,2.48-.58,3.7-.93.96-.28,2.09-2.01,1.96-3.02-.34-2.53-.56-5.09-1.1-7.58-1.51-6.87-2.68-13.79-3.84-20.72-.95-5.69-1.22-11.44-2.1-17.12-.93-6.03-1.16-12.08-1.33-18.16-.17-6.07-.38-12.14-.66-18.21-.48-10.54-1.03-21.07-1.55-31.6Z"/>
  <path class="uuid-0ffcf094-458a-4766-82a8-3e7d3f6a8084" d="m1032.63,0c15.93.31,31.68,2.55,46.73,8.58,12.05,4.83,22.62,11.89,31.34,21.58,1.49,1.65,2.72,3.53,4.02,5.34.66.92.4,2.9-.39,3.55-.73.61-1.43,1.27-2.22,1.8-8.47,5.75-16.94,11.48-25.44,17.19-1.06.71-2.17,1.43-3.36,1.8-.81.25-1.95.15-2.7-.25-1.1-.59-2.05-1.52-2.95-2.41-6.12-6-13.6-9.4-21.74-11.63-8.43-2.32-17.05-2.72-25.69-2.5-25.79.64-49.72,8.03-72.13,20.55-10.4,5.82-19.78,12.97-27.39,22.28-.6.73-1.25,1.54-2.06,1.97-.79.42-1.8.5-2.72.52-.6,0-1.26-.27-1.81-.59-9.99-5.72-19.96-11.47-29.93-17.22-.27-.16-.5-.38-.75-.57-.78-.59-1.15-2.54-.6-3.55.77-1.39,1.49-2.83,2.42-4.11,6.63-9.13,14.66-16.9,23.61-23.72,15.14-11.54,31.9-20.09,49.77-26.47,13.58-4.85,27.49-8.32,41.83-10.21,7.31-.96,14.62-1.53,22.15-1.93Z"/>
  <path class="uuid-0ffcf094-458a-4766-82a8-3e7d3f6a8084" d="m94.49,2070.02c-.34,20.97-4.07,41.34-10.18,61.31-.37,1.22-.82,2.42-1.28,3.6-.39,1.01-2.06,1.99-3.12,1.85-1.26-.17-2.58-.2-3.78-.58-9.74-3.11-19.46-6.27-29.18-9.45-.89-.29-1.7-.85-2.52-1.32-.95-.54-1.77-2.29-1.52-3.3.62-2.48,1.21-4.97,1.94-7.41,3.51-11.68,5.45-23.67,6.69-35.76.81-7.96.49-15.93-.47-23.92-2.15-17.77-8.34-34.05-17.14-49.48-7.79-13.65-17.12-26.22-26.84-38.54-2.18-2.76-4.36-5.51-6.48-8.31-.99-1.31-.77-3.28.37-4.39.91-.89,1.81-1.81,2.79-2.62,7.37-6.14,14.74-12.28,22.15-18.37,1.22-1,2.6-1.85,4-2.58.45-.24,1.3-.05,1.8.23.82.46,1.63,1.04,2.23,1.76,15.36,18.47,29.66,37.69,40.9,59.03,9.01,17.12,15.26,35.19,17.93,54.35,1.1,7.89,1.15,15.93,1.68,23.91Z"/>
  <path class="uuid-0ffcf094-458a-4766-82a8-3e7d3f6a8084" d="m2046.58,2618.09c15.19.66,28.89,1.62,42.25,5.29,1.22.33,2.38.89,3.55,1.39,1.08.46,1.86,1.97,1.7,3.16-.13.95-.16,1.94-.44,2.84-3.09,9.74-6.22,19.48-9.37,29.2-.29.9-.7,1.8-1.24,2.57-.76,1.06-1.82,1.89-3.21,1.78-1.9-.15-3.8-.37-5.67-.75-10.69-2.16-21.47-3.43-32.39-2.83-10.26.57-20.32,2.25-29.97,5.93-5.11,1.95-9.91,4.47-14.15,7.96-3.74,3.07-6.93,6.63-9.25,10.91-.76,1.4-1.52,2.82-2.4,4.15-.77,1.15-2.01,1.47-3.35,1.43-.32-.01-.65.02-.95-.07-11.08-3.08-22.16-6.17-33.23-9.29-.59-.17-1.29-.45-1.62-.9-.52-.73-1.24-1.77-1.07-2.48.6-2.46,1.38-4.91,2.38-7.24,5.56-12.95,14.22-23.43,25.5-31.8,9.88-7.33,20.91-12.37,32.68-15.68,8.3-2.34,16.73-4.2,25.43-4.55,5.43-.22,10.84-.73,14.84-1.01Z"/>
  <path class="uuid-0ffcf094-458a-4766-82a8-3e7d3f6a8084" d="m1889.26,2753.89c2.48-.18,5.42,1.02,8.27,2.54,1.85.98,2.26,3.47.76,4.79-1.92,1.68-3.93,3.26-5.79,5.01-.66.62-1.11,1.55-1.4,2.43-.17.5-.02,1.3.29,1.75,1.32,1.92,3.48,2.75,5.41,3.85,3.88,2.23,7.81,4.37,11.68,6.6,1.32.76,1.62,2.99.76,4.27-4.6,6.82-11.19,10.49-19.2,11.24-5.55.52-10.76-1.3-15.33-4.53-5.37-3.81-9.04-8.96-11.41-15.08-.42-1.09.08-2.9,1.03-3.41,1.4-.75,2.8-1.53,4.27-2.15,2.94-1.25,5.94-2.35,8.88-3.6,3.45-1.47,3.68-2.63,1.27-5.52-.41-.48-.81-.97-1.18-1.48-.49-.68-.27-2.01.39-2.64,2.93-2.79,6.5-3.9,11.3-4.06Z"/>
  <path class="uuid-0ffcf094-458a-4766-82a8-3e7d3f6a8084" d="m6.29,2279.41c-.02-5.12,1.3-9.02,3.48-12.64,2.93-4.85,7.21-8.04,12.57-9.81.81-.27,3.01.72,3.29,1.56.89,2.73,1.67,5.5,2.59,8.22.81,2.41,1.73,4.78,2.65,7.15.36.92,2.69,1.16,3.38.33,1.01-1.23,1.98-2.49,2.92-3.78,1.12-1.54,2.17-3.14,3.28-4.69.44-.61,2.01-.82,2.64-.39.52.36,1.15.65,1.53,1.14,6.68,8.59,4.95,20.29-2.65,26.75-.24.2-.55.32-.81.51-.94.72-2.97.39-3.43-.6-1.07-2.31-2.04-4.67-3.16-6.96-.41-.84-1.1-1.54-1.69-2.28-.45-.58-2.14-.45-2.57.19-.71,1.06-1.5,2.08-2.07,3.21-1.45,2.85-2.74,5.78-4.2,8.62-1.84,3.59-3.69,4.01-6.82,1.88-5.25-3.57-8.75-8.36-10.28-14.53-.38-1.54-.54-3.13-.67-3.9Z"/>
  <path class="uuid-0ffcf094-458a-4766-82a8-3e7d3f6a8084" d="m685.12,1232.86c-.1-23.87,5.94-43.49,16.61-61.8.8-1.36,1.89-2.56,2.89-3.79.67-.82,2.54-1.11,3.56-.64.58.27,1.21.45,1.73.8,9.57,6.38,19.12,12.79,28.67,19.19.26.18.48.42.73.62,1.26,1.05,1.83,2.96,1.18,4.32-1.1,2.3-2.28,4.57-3.42,6.85-3.31,6.62-5.58,13.57-6.91,20.86-4.91,26.97,8.46,55.91,32.25,69.5,15.73,8.98,32.05,10.01,48.86,3.27,5.67-2.28,10.83-5.45,15.75-9.05,1.8-1.32,3.63-2.6,5.48-3.85.86-.59,2.84-.43,3.63.27,1.42,1.28,2.89,2.53,4.19,3.92,6.33,6.77,12.62,13.57,18.9,20.39.86.94,1.64,1.95,2.43,2.96,1.25,1.6,1.06,3.66-.45,5.19-.45.46-.87.94-1.35,1.36-13.79,11.87-29.31,20.57-47.11,24.62-26.45,6.01-51.55,2.2-74.65-12.12-27.2-16.87-43.83-41.39-50.77-72.55-1.68-7.52-2.34-15.15-2.21-20.32Z"/>
  <path class="uuid-0ffcf094-458a-4766-82a8-3e7d3f6a8084" d="m1542.16,1436.06c-15.29.48-29.79-3.04-43.72-9.1-16.65-7.23-31.05-17.7-43.43-30.92-15.79-16.86-26.94-36.38-33.17-58.67-.69-2.46-1.26-4.95-1.75-7.46-.82-4.24.37-6.11,4.32-7,1.56-.35,3.12-.7,4.69-.96,8.19-1.4,16.38-2.79,24.57-4.13,1.57-.25,3.18-.32,4.77-.29,1.69.03,3.12.73,3.85,2.34.66,1.45,1.2,2.96,1.71,4.47.81,2.42,1.46,4.9,2.33,7.3,6.48,17.88,17.17,32.75,32.22,44.37,9.48,7.32,20,12.57,31.81,14.96,15.93,3.23,30.45.04,43.51-9.65,5.17-3.83,9.52-8.49,13.56-13.48,1.19-1.47,2.56-2.82,3.97-4.1.39-.35,1.21-.36,1.82-.32.62.04,1.3.19,1.81.52,9.92,6.43,19.82,12.88,29.69,19.37.77.5,1.37,1.34,1.86,2.14.3.49.42,1.25.29,1.82-.21.92-.55,1.87-1.08,2.63-17.42,25.08-40.61,41.19-71.22,45.71-1.58.23-3.18.37-4.77.41-2.55.07-5.11.02-7.66.02Z"/>
  <path class="uuid-0ffcf094-458a-4766-82a8-3e7d3f6a8084" d="m1198.72,854.69c4.47,0,8.95-.04,13.42.02,1.59.02,3.18.27,4.75.48,1.42.2,3.12,1.76,3.37,3.07.24,1.25.42,2.52.62,3.78.5,3.16.81,6.35,1.53,9.45.72,3.1,1.61,6.2,2.86,9.12,3.56,8.37,10.08,12.99,19.04,14.12,4.78.6,9.57.42,14.33-.38.94-.16,1.88-.39,2.81-.6,23.89-5.29,48.09-22.82,60.45-43.92,1.77-3.02,3.17-6.26,4.69-9.43.83-1.73,1.49-3.53,2.3-5.26.6-1.27,1.8-1.88,3.09-1.93,1.58-.06,3.21.05,4.76.38,9.69,2.04,19.37,4.15,29.03,6.3,1.23.27,2.38.91,3.54,1.41.98.42,1.99,2.11,1.8,3.14-.41,2.19-.71,4.43-1.39,6.54-2.48,7.62-5.85,14.85-9.95,21.75-6.42,10.79-14.33,20.38-23.51,28.91-16.88,15.7-36.21,27.15-58.46,33.59-12.14,3.51-24.49,4.76-36.99,3.54-22.01-2.16-39.34-12.32-51.28-31.18-2.57-4.06-4.65-8.38-6.36-12.87-3.44-9.03-5.29-18.41-6.08-28.01-.21-2.53-.07-5.1.06-7.65.12-2.4,1.85-4.06,4.33-4.29,1.91-.17,3.82-.28,5.73-.31,3.83-.05,7.67-.01,11.5-.01v.24Z"/>
  <path class="uuid-0ffcf094-458a-4766-82a8-3e7d3f6a8084" d="m2171.27,1289.93c-.15-13.89,2.6-27.33,6.52-40.56.45-1.52,1.17-2.97,1.83-4.42.59-1.3,2.65-2.45,3.95-2.2,1.25.23,2.53.44,3.72.85,9.07,3.13,18.12,6.28,27.16,9.49,1.49.53,2.95,1.26,4.27,2.12,1.08.7,1.84,1.86,1.72,3.24-.14,1.58-.39,3.16-.79,4.69-1.56,5.88-2.92,11.8-3.73,17.83-.94,7.01-.94,14,.56,20.98,2.18,10.17,7.5,18.22,15.85,24.33,4.67,3.42,9.78,6.06,15.16,8.16,6.87,2.69,13.97,4.58,21.21,5.92,3.77.7,7.54,1.41,11.3,2.16,1.26.25,2.69,2.12,2.85,3.54.07.63.22,1.28.16,1.9-.99,10.82-2,21.65-3.03,32.47-.06.63-.31,1.23-.48,1.85-.47,1.68-2.59,3.42-4.22,3.42-1.28,0-2.57.03-3.83-.15-12.7-1.76-25.18-4.42-37.25-8.87-8.43-3.11-16.52-6.93-23.99-11.93-24.92-16.68-37.72-40.14-38.94-70.02-.06-1.6,0-3.2,0-4.8Z"/>
  <path class="uuid-0ffcf094-458a-4766-82a8-3e7d3f6a8084" d="m1835.74,1576.3c12.64-.14,21.32,4.5,27.63,13.48,2.01,2.85,3.48,6.09,5.1,9.2,1.24,2.37,1.35,4.89.53,7.44-1.37,4.27-3.01,8.43-5.58,12.15-1.45,2.1-2.92,4.16-3.45,6.76-.41,1.99-1.95,3.24-3.54,4.35-9.42,6.61-25.41,6.78-34.8-6.43-2.05-2.89-3.59-6.05-4.73-9.39-3.09-9.1-4.86-18.52-6.72-27.92-.18-.9-.13-1.96.17-2.82.29-.84,1.01-1.54,1.59-2.25.18-.22.54-.35.85-.42,8.06-2.02,16.17-3.75,22.95-4.17Z"/>
  <path class="uuid-0ffcf094-458a-4766-82a8-3e7d3f6a8084" d="m2402.89,1146.7c.02.24.15.58.05.69-.45.45-.68.24-.53-.53.02-.08.31-.11.48-.16Z"/>
  <path class="uuid-0ffcf094-458a-4766-82a8-3e7d3f6a8084" d="m2402.85,1226.47c-.16-.08-.43-.14-.46-.25-.05-.22.02-.68.07-.69.53-.03.66.31.39.94Z"/>
  <path class="uuid-0ffcf094-458a-4766-82a8-3e7d3f6a8084" d="m1288.32,2515.54c-.01,8.97-.38,17.9-2.4,26.68-.43,1.86-.97,3.7-1.57,5.51-.66,1.98-2.57,3.12-4.46,2.8-.63-.1-1.27-.17-1.88-.33-10.17-2.79-20.34-5.58-30.5-8.4-.91-.25-1.79-.69-2.63-1.14-1.51-.82-2.48-2.13-2.38-3.85.13-2.22.53-4.43.82-6.64,2.85-21.56-.38-42.04-10.83-61.24-4.31-7.93-9.73-15.01-16.44-21.06-6.99-6.3-14.95-10.87-24.08-13.37-9.87-2.71-19.65-2.15-29.3.86-4.25,1.33-8.33,3.23-12.48,4.88-1.78.71-3.52,1.5-5.3,2.2-.91.36-2.83-.3-3.49-1.1-.41-.49-.87-.95-1.2-1.48-6.09-9.76-12.18-19.52-18.23-29.3-.33-.53-.62-1.2-.59-1.8.03-.91.15-1.93.61-2.68.48-.77,1.33-1.39,2.15-1.86,16.92-9.75,34.99-15.47,54.68-15.56,15.32-.07,29.77,3.47,43.44,10.28,13.35,6.65,24.7,15.88,34.28,27.26,15.15,17.99,24.69,38.69,29.29,61.69,2.03,10.13,2.51,16.17,2.52,27.64Z"/>
  <path class="uuid-0ffcf094-458a-4766-82a8-3e7d3f6a8084" d="m922.1,2411.47c13.79-.33,27.31,1.71,40.49,5.99,9.49,3.08,18.36,7.39,26.38,13.37,6.98,5.21,12.97,11.36,17.6,18.76,8.08,12.92,11.26,27.06,9.85,42.15-1.24,13.2-5.35,25.59-11.52,37.31-.44.84-1.07,1.58-1.64,2.35-.59.79-2.54,1.3-3.53.91-.89-.34-1.82-.62-2.65-1.09-9.21-5.13-18.4-10.29-27.59-15.45-.83-.47-1.59-1.06-2.37-1.61-1.29-.92-2-2.83-1.48-4.24.89-2.39,1.85-4.75,2.8-7.12,1.55-3.87,2.86-7.8,3.47-11.94.19-1.26.44-2.53.51-3.8.37-7.44-1.96-13.82-7.59-18.86-3.37-3.02-7.24-5.23-11.37-7-7.12-3.05-14.6-4.7-22.27-5.37-13.84-1.2-27.43.29-40.68,4.54-10.14,3.26-19.47,8.03-27.63,14.96-1.21,1.03-2.49,1.98-3.77,2.93-.86.64-2.67.56-3.65-.08-.27-.17-.58-.28-.82-.49-8.92-7.75-17.84-15.5-26.75-23.26-.24-.21-.39-.51-.6-.74-1.11-1.26-1.3-3.19-.34-4.39.99-1.24,1.97-2.51,3.09-3.64,4.96-5.02,10.53-9.29,16.46-13.11,14.99-9.65,31.4-15.6,48.85-18.86,8.82-1.65,17.72-2.42,26.76-2.24Z"/>
  <path class="uuid-0ffcf094-458a-4766-82a8-3e7d3f6a8084" d="m1067.21,2645.16c5.61.11,12.31.33,18.92,1.71,19.51,4.07,35.51,13.92,48.16,29.27,5.1,6.19,9.33,12.95,12.91,20.13,5.01,10.06,8.61,20.62,11.25,31.52.44,1.83.49,3.78.5,5.67.01,1.35-.9,2.38-2.02,3.05-.81.48-1.72.9-2.64,1.08-10.33,2.09-20.66,4.15-31.01,6.15-1.22.24-2.58.23-3.79-.03-.84-.18-1.82-.82-2.24-1.55-.79-1.36-1.3-2.9-1.78-4.41-1.36-4.26-2.51-8.59-4.01-12.79-2.37-6.64-5.48-12.95-9.7-18.64-5.7-7.68-12.91-13.28-22.33-15.56-3.08-.75-6.29-1.13-9.46-1.33-8.69-.55-17.24.61-25.56,3.08-5.5,1.63-10.89,3.67-16.33,5.51-1.81.61-3.62,1.24-5.45,1.79-1.15.35-2.78-.26-3.44-1.19-.55-.78-1.2-1.51-1.6-2.37-4.6-9.84-9.16-19.69-13.7-29.56-.4-.86-.61-1.81-.89-2.73-.29-.96.48-2.73,1.44-3.34.8-.51,1.59-1.07,2.44-1.49,1.43-.7,2.91-1.32,4.38-1.93,7.98-3.29,16.17-5.98,24.53-8.16,9.95-2.59,20.07-3.8,31.43-3.9Z"/>
  <path class="uuid-0ffcf094-458a-4766-82a8-3e7d3f6a8084" d="m1453.47,1842.12c-1.21-.06-2.42-.13-3.63-.19l-.05-.06c1.25.12,2.5.24,3.76.36l-.07-.11Z"/>
  <path class="uuid-0ffcf094-458a-4766-82a8-3e7d3f6a8084" d="m1454.17,1845.7c-.23-1.2-.47-2.39-.7-3.59l.07.11c.15,1.11.29,2.22.44,3.33,0,0,.19.15.19.15Z"/>
  <polygon class="uuid-0ffcf094-458a-4766-82a8-3e7d3f6a8084" points="1453.98 1845.55 1454.59 1845.39 1454.17 1845.7 1453.98 1845.55"/>
  <path class="uuid-0ffcf094-458a-4766-82a8-3e7d3f6a8084" d="m1243.04,2932.23l-.11.07.11-.07Z"/>
  <path class="uuid-0ffcf094-458a-4766-82a8-3e7d3f6a8084" d="m1239.38,2932.91c1.22-.23,2.44-.45,3.66-.68,0,0-.11.07-.11.07-1.13.14-2.26.28-3.39.42l-.16.19Z"/>
  <polygon class="uuid-0ffcf094-458a-4766-82a8-3e7d3f6a8084" points="1239.54 2932.72 1239.72 2933.32 1239.38 2932.91 1239.54 2932.72"/>
  <polygon class="uuid-0ffcf094-458a-4766-82a8-3e7d3f6a8084" points="1218.3 2953.54 1218.81 2953.59 1218.37 2953.48 1218.3 2953.54"/>
  <path class="uuid-0ffcf094-458a-4766-82a8-3e7d3f6a8084" d="m1218.02,2957.13c.09-1.19.19-2.39.28-3.58l.07-.06c-.19,1.22-.37,2.44-.56,3.66l.21-.02Z"/>
  <path class="uuid-0ffcf094-458a-4766-82a8-3e7d3f6a8084" d="m1217.81,2957.15c-1.06.19-2.12.37-3.18.56l-.1.2c1.16-.26,2.32-.52,3.49-.78l-.21.02Z"/>
  <polygon class="uuid-0ffcf094-458a-4766-82a8-3e7d3f6a8084" points="1214.63 2957.7 1214.88 2958.37 1214.53 2957.91 1214.63 2957.7"/>
</svg>